<svg width="34" height="35" viewBox="0 0 34 35" fill="none" xmlns="http://www.w3.org/2000/svg">
<path d="M18.9974 17.5429L25.0891 11.4654C25.3558 11.1986 25.5057 10.8368 25.5057 10.4596C25.5057 10.0823 25.3558 9.7205 25.0891 9.45374C24.8223 9.18698 24.4605 9.03711 24.0832 9.03711C23.706 9.03711 23.3442 9.18698 23.0774 9.45374L16.9999 15.5454L10.9224 9.45374C10.6557 9.18698 10.2938 9.03711 9.91658 9.03711C9.53932 9.03711 9.17751 9.18698 8.91075 9.45374C8.64398 9.7205 8.49412 10.0823 8.49412 10.4596C8.49412 10.8368 8.64398 11.1986 8.91075 11.4654L15.0024 17.5429L8.91075 23.6204C8.77796 23.7521 8.67257 23.9088 8.60065 24.0814C8.52873 24.2541 8.4917 24.4392 8.4917 24.6262C8.4917 24.8133 8.52873 24.9984 8.60065 25.1711C8.67257 25.3437 8.77796 25.5004 8.91075 25.6321C9.04244 25.7649 9.19913 25.8702 9.37176 25.9422C9.5444 26.0141 9.72956 26.0511 9.91658 26.0511C10.1036 26.0511 10.2888 26.0141 10.4614 25.9422C10.634 25.8702 10.7907 25.7649 10.9224 25.6321L16.9999 19.5404L23.0774 25.6321C23.2091 25.7649 23.3658 25.8702 23.5384 25.9422C23.7111 26.0141 23.8962 26.0511 24.0832 26.0511C24.2703 26.0511 24.4554 26.0141 24.6281 25.9422C24.8007 25.8702 24.9574 25.7649 25.0891 25.6321C25.2219 25.5004 25.3273 25.3437 25.3992 25.1711C25.4711 24.9984 25.5081 24.8133 25.5081 24.6262C25.5081 24.4392 25.4711 24.2541 25.3992 24.0814C25.3273 23.9088 25.2219 23.7521 25.0891 23.6204L18.9974 17.5429Z" fill="#F05454"/>
</svg>
