<svg width="57" height="29" viewBox="0 0 57 29" fill="none" xmlns="http://www.w3.org/2000/svg">
<path d="M5.782 0H56.9987C56.9987 0 55.0488 14.1596 45.5594 20.2864L52.319 28.8638L33.5352 28.9319L30.7404 25.0516L29.5705 29L8.47152 28.936C8.47152 28.936 -1.29734 29.4384 0.152062 16.8281C0.612232 12.745 5.782 0 5.782 0Z" fill="white"/>
<path d="M8.8292 3.83788L15.7266 3.81201C14.3096 7.96051 11.7813 15.1588 11.6175 16.0465C11.2977 17.7878 11.39 18.843 12.0218 19.6054C12.7043 20.4223 13.7819 20.6415 14.6359 20.6797C16.3115 20.7368 18.9114 20.8308 20.6012 20.6946C20.6012 20.6946 20.7013 20.794 21.1212 19.7416L24.696 8.91764H39.515C39.515 8.91764 38.9951 11.9129 36.0053 12.1852C34.182 12.3495 32.3506 12.3922 30.5222 12.3132L26.5159 24.8472L9.74694 24.9834C8.60821 24.9017 6.80263 24.5667 5.57161 23.1521C4.27169 21.6545 4.36659 19.1711 4.50828 17.9784C4.55247 17.6054 5.28173 14.3827 5.39222 14.0301L8.8292 3.83788Z" fill="#D9211C"/>
<path d="M17.2865 3.88037L13.2841 16.1992C13.2841 16.1992 12.5262 18.6949 13.8742 18.9753C15.4835 19.3103 17.1994 19.283 18.3849 19.2476C19.0986 19.2286 19.5549 19.1918 19.5549 19.1918L20.093 17.558L23.1764 8.16366C23.5846 6.9492 23.4546 7.22149 24.5439 7.15342H42.2449C42.188 7.57919 42.0904 7.99791 41.9537 8.40328C40.8605 11.7921 37.7459 14.0072 34.331 13.9078L31.5206 13.8929L30.2857 18.59L35.2253 24.7168H44.1948L38.8001 17.7051H39.1901C39.1901 17.7051 47.7045 17.637 51.6043 3.88581L17.2865 3.88037Z" fill="#1D1D1B"/>
</svg>
