<svg width="110" height="29" viewBox="0 0 110 29" fill="none" xmlns="http://www.w3.org/2000/svg">
<g clip-path="url(#clip0_310_36792)">
<path d="M6.59716 0.5H56.9153C56.9153 0.5 54.9996 14.1713 45.6767 20.0868L52.3177 28.3685L33.8635 28.4342L31.1177 24.6878L29.9683 28.5L9.2395 28.4382C9.2395 28.4382 -0.357985 28.9233 1.06599 16.7479C1.51809 12.8055 6.59716 0.5 6.59716 0.5Z" fill="white"/>
<path d="M9.59088 4.20564L16.3672 4.18066C14.9752 8.18611 12.4912 15.1362 12.3303 15.9932C12.0161 17.6746 12.1068 18.6933 12.7275 19.4295C13.398 20.2182 14.4567 20.4299 15.2957 20.4667C16.9419 20.5219 19.4962 20.6126 21.1564 20.4811C21.1564 20.4811 21.2547 20.5771 21.6672 19.5609L25.1793 9.11024H39.7384C39.7384 9.11024 39.2275 12.0023 36.2902 12.2652C34.4989 12.4237 32.6997 12.465 30.9033 12.3887L26.9673 24.4905L10.4925 24.622C9.37377 24.5431 7.59987 24.2197 6.39044 22.8539C5.11333 21.4079 5.20656 19.0101 5.34577 17.8586C5.38919 17.4984 6.10565 14.3869 6.2142 14.0464L9.59088 4.20564Z" fill="#D9211C"/>
<path d="M17.8996 4.24658L13.9674 16.1407C13.9674 16.1407 13.2228 18.5502 14.5472 18.821C16.1282 19.1444 17.814 19.1181 18.9787 19.084C19.6799 19.0655 20.1281 19.0301 20.1281 19.0301L20.6569 17.4526L23.6862 8.38217C24.0872 7.20959 23.9595 7.47249 25.0297 7.40677H42.4201C42.3642 7.81786 42.2683 8.22214 42.134 8.61353C41.06 11.8855 38 14.0242 34.645 13.9283L31.8839 13.9138L30.6707 18.449L35.5237 24.3645H44.3358L39.0357 17.5946H39.4189C39.4189 17.5946 47.7839 17.5288 51.6153 4.25184L17.8996 4.24658Z" fill="#1D1D1B"/>
</g>
<path d="M60.0532 13.5L58.6782 9.01953H58.6431C58.6925 9.93099 58.7173 10.5391 58.7173 10.8438V13.5H57.6353V7.78906H59.2837L60.6353 12.1562H60.6587L62.0923 7.78906H63.7407V13.5H62.6118V10.7969C62.6118 10.6693 62.6131 10.5221 62.6157 10.3555C62.6209 10.1888 62.6392 9.74609 62.6704 9.02734H62.6353L61.1626 13.5H60.0532ZM67.8618 13.5L67.6313 12.9062H67.6001C67.3996 13.1589 67.1925 13.3346 66.979 13.4336C66.7681 13.5299 66.492 13.5781 66.1509 13.5781C65.7316 13.5781 65.4009 13.4583 65.1587 13.2188C64.9191 12.9792 64.7993 12.638 64.7993 12.1953C64.7993 11.7318 64.9608 11.3906 65.2837 11.1719C65.6092 10.9505 66.0988 10.8281 66.7524 10.8047L67.5103 10.7812V10.5898C67.5103 10.1471 67.2837 9.92578 66.8306 9.92578C66.4816 9.92578 66.0715 10.0312 65.6001 10.2422L65.2056 9.4375C65.7082 9.17448 66.2655 9.04297 66.8774 9.04297C67.4634 9.04297 67.9126 9.17057 68.2251 9.42578C68.5376 9.68099 68.6938 10.069 68.6938 10.5898V13.5H67.8618ZM67.5103 11.4766L67.0493 11.4922C66.703 11.5026 66.4451 11.5651 66.2759 11.6797C66.1066 11.7943 66.022 11.9688 66.022 12.2031C66.022 12.5391 66.2147 12.707 66.6001 12.707C66.8761 12.707 67.0962 12.6276 67.2603 12.4688C67.4269 12.3099 67.5103 12.099 67.5103 11.8359V11.4766ZM72.9399 9.13281V10.0273H71.1157V13.5H69.9243V9.13281H72.9399ZM76.5259 13.5L76.2954 12.9062H76.2642C76.0636 13.1589 75.8566 13.3346 75.6431 13.4336C75.4321 13.5299 75.1561 13.5781 74.8149 13.5781C74.3957 13.5781 74.0649 13.4583 73.8228 13.2188C73.5832 12.9792 73.4634 12.638 73.4634 12.1953C73.4634 11.7318 73.6248 11.3906 73.9478 11.1719C74.2733 10.9505 74.7629 10.8281 75.4165 10.8047L76.1743 10.7812V10.5898C76.1743 10.1471 75.9478 9.92578 75.4946 9.92578C75.1457 9.92578 74.7355 10.0312 74.2642 10.2422L73.8696 9.4375C74.3722 9.17448 74.9295 9.04297 75.5415 9.04297C76.1274 9.04297 76.5767 9.17057 76.8892 9.42578C77.2017 9.68099 77.3579 10.069 77.3579 10.5898V13.5H76.5259ZM76.1743 11.4766L75.7134 11.4922C75.367 11.5026 75.1092 11.5651 74.9399 11.6797C74.7707 11.7943 74.686 11.9688 74.686 12.2031C74.686 12.5391 74.8787 12.707 75.2642 12.707C75.5402 12.707 75.7603 12.6276 75.9243 12.4688C76.091 12.3099 76.1743 12.099 76.1743 11.8359V11.4766ZM79.6743 10.8125C80.1248 10.8125 80.4438 10.776 80.6313 10.7031C80.8215 10.6302 80.9165 10.5143 80.9165 10.3555C80.9165 10.2148 80.8475 10.1094 80.7095 10.0391C80.5715 9.96875 80.3436 9.93359 80.0259 9.93359C79.8254 9.93359 79.5975 9.95833 79.3423 10.0078C79.0897 10.0573 78.8592 10.125 78.6509 10.2109L78.2993 9.37891C78.6092 9.26172 78.91 9.17839 79.2017 9.12891C79.4933 9.07682 79.8188 9.05078 80.1782 9.05078C80.7225 9.05078 81.1587 9.15495 81.4868 9.36328C81.8149 9.57161 81.979 9.85417 81.979 10.2109C81.979 10.7031 81.6886 11.0234 81.1079 11.1719V11.2109C81.4647 11.2995 81.7186 11.4258 81.8696 11.5898C82.0233 11.7513 82.1001 11.9635 82.1001 12.2266C82.1001 12.4922 82.0142 12.7279 81.8423 12.9336C81.6704 13.1393 81.4217 13.2982 81.0962 13.4102C80.7707 13.5221 80.3879 13.5781 79.9478 13.5781C79.2186 13.5781 78.6587 13.4883 78.2681 13.3086V12.3242C78.492 12.4284 78.7368 12.5104 79.0024 12.5703C79.2707 12.6302 79.5298 12.6602 79.7798 12.6602C80.1678 12.6602 80.4582 12.6172 80.6509 12.5312C80.8436 12.4427 80.9399 12.3177 80.9399 12.1562C80.9399 11.9792 80.8384 11.849 80.6353 11.7656C80.4321 11.6797 80.1196 11.6367 79.6978 11.6367H79.2368V10.8125H79.6743ZM84.186 9.13281V10.8594C84.186 11.0417 84.1561 11.487 84.0962 12.1953L86.1118 9.13281H87.5454V13.5H86.3931V11.7578C86.3931 11.4479 86.4191 11.0104 86.4712 10.4453L84.4634 13.5H83.0337V9.13281H84.186ZM89.9907 9.13281V10.8125H91.6548V9.13281H92.8462V13.5H91.6548V11.6992H89.9907V13.5H88.7993V9.13281H89.9907ZM61.1313 19.5L60.7173 18.1406H58.6353L58.2212 19.5H56.9165L58.9321 13.7656H60.4126L62.436 19.5H61.1313ZM60.4282 17.125C60.0454 15.8932 59.8293 15.1966 59.7798 15.0352C59.7329 14.8737 59.6991 14.7461 59.6782 14.6523C59.5923 14.9857 59.3462 15.8099 58.9399 17.125H60.4282ZM67.0962 16.2773C67.0962 16.5117 67.022 16.7122 66.8735 16.8789C66.7277 17.043 66.5116 17.1484 66.2251 17.1953V17.2266C66.535 17.263 66.7798 17.3698 66.9595 17.5469C67.1418 17.7214 67.2329 17.9375 67.2329 18.1953C67.2329 18.6198 67.0662 18.944 66.7329 19.168C66.3996 19.3893 65.923 19.5 65.3032 19.5H63.0649V15.1328H65.3032C65.9022 15.1328 66.3501 15.2305 66.647 15.4258C66.9465 15.6185 67.0962 15.9023 67.0962 16.2773ZM65.9985 18.1328C65.9985 17.9609 65.9321 17.8372 65.7993 17.7617C65.6665 17.6836 65.4673 17.6445 65.2017 17.6445H64.2563V18.6758H65.2251C65.4777 18.6758 65.6691 18.6289 65.7993 18.5352C65.9321 18.4388 65.9985 18.3047 65.9985 18.1328ZM65.8892 16.3711C65.8892 16.1055 65.6782 15.9727 65.2563 15.9727H64.2563V16.8359H65.1196C65.3722 16.8359 65.5636 16.7995 65.6938 16.7266C65.8241 16.6536 65.8892 16.5352 65.8892 16.3711ZM71.7954 15.1328V16.0273H70.3657V19.5H69.1743V16.0273H67.7407V15.1328H71.7954ZM73.561 17.3086C73.561 17.7409 73.6313 18.0677 73.772 18.2891C73.9152 18.5104 74.147 18.6211 74.4673 18.6211C74.785 18.6211 75.0129 18.5117 75.1509 18.293C75.2915 18.0716 75.3618 17.7435 75.3618 17.3086C75.3618 16.8763 75.2915 16.5521 75.1509 16.3359C75.0103 16.1198 74.7798 16.0117 74.4595 16.0117C74.1418 16.0117 73.9126 16.1198 73.772 16.3359C73.6313 16.5495 73.561 16.8737 73.561 17.3086ZM76.5806 17.3086C76.5806 18.0195 76.3931 18.5755 76.0181 18.9766C75.6431 19.3776 75.1209 19.5781 74.4517 19.5781C74.0324 19.5781 73.6626 19.487 73.3423 19.3047C73.022 19.1198 72.7759 18.8555 72.604 18.5117C72.4321 18.168 72.3462 17.7669 72.3462 17.3086C72.3462 16.5951 72.5324 16.0404 72.9048 15.6445C73.2772 15.2487 73.8006 15.0508 74.4751 15.0508C74.8944 15.0508 75.2642 15.1419 75.5845 15.3242C75.9048 15.5065 76.1509 15.7682 76.3228 16.1094C76.4946 16.4505 76.5806 16.8503 76.5806 17.3086ZM81.1782 15.1328V16.0273H79.7485V19.5H78.5571V16.0273H77.1235V15.1328H81.1782ZM88.0259 17.3086C88.0259 18.0247 87.8449 18.582 87.4829 18.9805C87.1209 19.3789 86.6196 19.5781 85.979 19.5781C85.4035 19.5781 84.9425 19.4167 84.5962 19.0938C84.2524 18.7708 84.0441 18.306 83.9712 17.6992H83.186V19.5H81.9946V15.1328H83.186V16.8125H83.9868C84.0623 16.2552 84.2772 15.8229 84.6313 15.5156C84.9881 15.2057 85.4451 15.0508 86.0024 15.0508C86.6196 15.0508 87.1105 15.2539 87.4751 15.6602C87.8423 16.0638 88.0259 16.6133 88.0259 17.3086ZM85.1704 17.3086C85.1704 17.7435 85.2342 18.0716 85.3618 18.293C85.4894 18.5117 85.7004 18.6211 85.9946 18.6211C86.2837 18.6211 86.492 18.5117 86.6196 18.293C86.7472 18.0716 86.811 17.7435 86.811 17.3086C86.811 16.8737 86.7459 16.5495 86.6157 16.3359C86.4881 16.1198 86.2785 16.0117 85.9868 16.0117C85.6978 16.0117 85.4894 16.1198 85.3618 16.3359C85.2342 16.5521 85.1704 16.8763 85.1704 17.3086ZM90.1626 15.1328V16.8594C90.1626 17.0417 90.1326 17.487 90.0728 18.1953L92.0884 15.1328H93.522V19.5H92.3696V17.7578C92.3696 17.4479 92.3957 17.0104 92.4478 16.4453L90.4399 19.5H89.0103V15.1328H90.1626ZM95.9673 15.1328V16.8125H97.6313V15.1328H98.8228V19.5H97.6313V17.6992H95.9673V19.5H94.7759V15.1328H95.9673ZM103.088 15.1328V16.0273H101.264V19.5H100.073V15.1328H103.088ZM106.674 19.5L106.444 18.9062H106.413C106.212 19.1589 106.005 19.3346 105.792 19.4336C105.581 19.5299 105.305 19.5781 104.963 19.5781C104.544 19.5781 104.213 19.4583 103.971 19.2188C103.732 18.9792 103.612 18.638 103.612 18.1953C103.612 17.7318 103.773 17.3906 104.096 17.1719C104.422 16.9505 104.911 16.8281 105.565 16.8047L106.323 16.7812V16.5898C106.323 16.1471 106.096 15.9258 105.643 15.9258C105.294 15.9258 104.884 16.0312 104.413 16.2422L104.018 15.4375C104.521 15.1745 105.078 15.043 105.69 15.043C106.276 15.043 106.725 15.1706 107.038 15.4258C107.35 15.681 107.506 16.069 107.506 16.5898V19.5H106.674ZM106.323 17.4766L105.862 17.4922C105.515 17.5026 105.258 17.5651 105.088 17.6797C104.919 17.7943 104.834 17.9688 104.834 18.2031C104.834 18.5391 105.027 18.707 105.413 18.707C105.689 18.707 105.909 18.6276 106.073 18.4688C106.239 18.3099 106.323 18.099 106.323 17.8359V17.4766Z" fill="#4F4F4F"/>
<defs>
<clipPath id="clip0_310_36792">
<rect width="56" height="28" fill="white" transform="translate(0.916504 0.5)"/>
</clipPath>
</defs>
</svg>
